<svg width="250px" xmlns="http://www.w3.org/2000/svg" viewBox="0 0 500.51 79.01"><defs><style>.cls-1,.cls-2,.cls-3{fill:none;stroke-linecap:round;stroke-linejoin:round;stroke-width:3.03px;}.cls-1,.cls-2,.cls-3,.cls-4{stroke:#000;}.cls-2{stroke-dasharray:2.08 4.58 2.08 4.58;}.cls-3{stroke-dasharray:2.08 4.58 2.08 4.58 2.08 4.58;}.cls-4{stroke-miterlimit:10;stroke-width:2.75px;}.cls-5{fill:#fff;}</style></defs><g id="レイヤー_2" data-component-name="レイヤー 2"><g id="レイヤー_1-2" data-component-name="レイヤー 1"><polyline class="cls-1" points="42.8 41.09 42.8 42.8 41.09 42.8"/><line class="cls-2" x1="36.51" y1="42.81" x2="25.49" y2="42.81"/><line class="cls-3" x1="23.2" y1="42.81" x2="5.52" y2="42.81"/><polyline class="cls-1" points="3.23 42.8 1.51 42.8 1.51 41.09"/><line class="cls-2" x1="1.51" y1="36.51" x2="1.51" y2="25.49"/><line class="cls-3" x1="1.51" y1="23.2" x2="1.51" y2="5.52"/><polyline class="cls-1" points="1.51 3.23 1.51 1.51 3.23 1.51"/><line class="cls-2" x1="7.81" y1="1.51" x2="18.83" y2="1.51"/><line class="cls-3" x1="21.12" y1="1.51" x2="38.8" y2="1.51"/><polyline class="cls-1" points="41.09 1.51 42.8 1.51 42.8 3.23"/><line class="cls-2" x1="42.81" y1="7.81" x2="42.81" y2="18.83"/><line class="cls-3" x1="42.81" y1="21.12" x2="42.81" y2="38.8"/><path d="M101.59,3.62h26.48L123.8,15.36H110.42L107,24.91h13.19l-4.21,11.56H102.74L92.6,64.32H79.5Z"/><path d="M131.15,55.67h-7l-4.33,8.65H107.16l30.65-60.7h17.47l-13.63,60.7H128.73Zm3-11.47,1.76-6.09,7.27-25.21-2.32,5.37c-1.8,4.18-3.43,7.92-4,9.19-1.66,3.55-3.19,7-4.76,10.56l-2.79,6.18Z"/><path d="M165.1,42.66l-1.53,4.18c-2,5.46-1.79,7.19.84,7.19,2.46,0,4.31-1.82,5.63-5.46,1.72-4.73,1.37-6-3.52-11.83-6.64-8-7.79-12.1-5.24-19.11,3.48-9.55,11.26-14.92,21.54-14.92,7.37,0,12,2.64,12.28,7,.18,2.28,0,3.19-1.87,8.65-.7,2.18-.7,2.18-.93,2.82H179.56c.42-.91.58-1.36.82-2,1.22-3.37.7-5.19-1.48-5.19a5.17,5.17,0,0,0-4.32,3.37,5.48,5.48,0,0,0,.07,3.55c.54,1.27.54,1.27,4.69,6.37l1.16,1.54c3.16,3.83,4,5.1,4.59,7.65s.08,6.55-1.58,11.1c-4.21,11.56-12.16,17.66-23.17,17.66-5.64,0-9.63-1.55-11.36-4.55-1-1.73-1.11-4.19-.42-7.1a59.48,59.48,0,0,1,2.24-6.65l1.56-4.27Z"/><path d="M205.26,15.81H197.8l4.44-12.19h28.3L226.1,15.81h-7.74L200.71,64.32h-13.1Z"/><path d="M291.53,64.32h-13l9.91-27.21c1.51-3.92,4.1-10.29,7.93-19.3L271.51,64.32H259.77l9.09-46.23-1.28,4c-2.45,7.74-4.12,12.83-4.92,15.29l-9.81,26.94H239.93L262,3.62h20.66L279,21.91c-1,4.64-2.62,11.47-4,16.74,3.25-6.91,6.13-12.83,8.22-16.83l9.56-18,20.82-.18Z"/><path d="M319.15,55.67h-7l-4.33,8.65H295.17l30.64-60.7h17.47l-13.63,60.7H316.73Zm3-11.47,1.77-6.09,7.26-25.21-2.32,5.37c-1.8,4.18-3.43,7.92-4,9.19-1.66,3.55-3.19,7-4.75,10.56l-2.8,6.18Z"/><path d="M355.39,3.62H374c9.92,0,12.45,4.55,8.48,15.47-3.25,8.92-6.15,12.37-11.09,13.47,3.43.82,3.86,3.64,1.55,9.73l-8,22H352l7.92-21.75c1.75-4.83,1.19-6.28-2.27-6.28a6.15,6.15,0,0,0-1.12.09L346.31,64.32h-13Zm7.7,21.84c3.18,0,5.24-1.64,6.46-5,1.46-4,.69-5.64-2.4-5.64h-2.82l-3.88,10.65Z"/><path d="M398.26,27.1c.54-1,1.18-2,1.82-3,1.53-2.45,2.84-4.55,3.44-5.46,1.18-1.73,2.26-3.46,3.4-5.09l6.52-9.92h12.93L409.76,29.74l-3.21,34.58H393.08L395,43.93c.1-1.27.36-2.73,1.23-9.37l.32-2.64-11.7,32.4H371.88L394,3.62h12.92Z"/><path d="M445,3.62,428.59,48.75c-1.32,3.64-1,5.19,1.3,5.19s3.93-1.55,5.25-5.19L451.57,3.62h13L448.16,48.75c-3.94,10.83-11.73,16.48-22.56,16.48S411.41,60,415.49,48.75L431.92,3.62Z"/><path d="M471.59,3.62h18.75c5.37,0,8.83,2,9.92,5.73.63,2.28.12,5.19-2,11-2.55,7-4.75,10.56-7.89,12.92a16.38,16.38,0,0,1-9.47,3.28h-8.19L462.6,64.32H449.5Zm7.83,21.75a7.39,7.39,0,0,0,3.47-1.28c1.08-.73,1.68-1.64,2.55-4,1.42-3.91.82-5.28-2.36-5.28h-2.46l-3.84,10.56Z"/><rect x="7.71" y="5.23" width="24.09" height="3.58" rx="1.03"/><rect x="11.84" y="12.8" width="24.09" height="3.58" rx="1.03"/><rect x="15.97" y="20.37" width="24.09" height="3.58" rx="1.03"/><rect x="11.84" y="27.94" width="24.09" height="3.58" rx="1.03"/><rect x="7.71" y="35.51" width="24.09" height="3.58" rx="1.03"/><rect class="cls-4" x="22.16" y="22.16" width="41.29" height="41.29" rx="0.77"/><path class="cls-5" d="M58.41,77.63a1.38,1.38,0,0,1-1.24-.77L51.79,66,47,68.4a1.36,1.36,0,0,1-.61.14,1.41,1.41,0,0,1-.74-.21A1.37,1.37,0,0,1,45,67.15l.27-21A1.38,1.38,0,0,1,46.05,45a1.3,1.3,0,0,1,.61-.14,1.39,1.39,0,0,1,.82.27L64.35,57.54a1.4,1.4,0,0,1,.55,1.23,1.36,1.36,0,0,1-.76,1.11l-4.79,2.38,5.39,10.85A1.37,1.37,0,0,1,64.12,75L59,77.48A1.37,1.37,0,0,1,58.41,77.63Z"/><path d="M46.66,46.2,63.53,58.65l-6,3,6,12.08-5.1,2.53-6-12.07-6,3,.27-21m0-2.75a2.81,2.81,0,0,0-1.23.29,2.75,2.75,0,0,0-1.52,2.43l-.28,21a2.75,2.75,0,0,0,2.76,2.79,2.67,2.67,0,0,0,1.22-.29l3.56-1.76,4.77,9.61A2.76,2.76,0,0,0,58.41,79a2.8,2.8,0,0,0,1.22-.29l5.1-2.54A2.73,2.73,0,0,0,66,72.49L61.2,62.88l3.55-1.76a2.75,2.75,0,0,0,1.52-2.23,2.72,2.72,0,0,0-1.11-2.45L48.29,44a2.7,2.7,0,0,0-1.63-.54Z"/></g></g></svg>